# xmcd CD database file
#
# Track frame offsets:
#	150
#	12240
#	28377
#	50570
#	66812
#	83152
#	102322
#	127175
#	141657
#	154545
#	167134
#	180580
#	189500
#	204197
#
# Disc length: 2958 seconds
#
# Revision: 2
# Processed by: cddbd v1.5.2PL0 Copyright (c) Steve Scherf et al.
# Submitted via: CDex 1.70beta2
#
DISCID=c50b8c0e
DTITLE=Creedence Clearwater Revival - Creedence Clearwater Revived
DYEAR=1900
DGENRE=Country
TTITLE0=Who'll stop the rain
TTITLE1=Proud Mary
TTITLE2=Suzy Q
TTITLE3=Long as i can see the light
TTITLE4=Down on the corner
TTITLE5=Have you ever seen the rain
TTITLE6=I heard it throught the grapevine
TTITLE7=Old man down the road
TTITLE8=Green river
TTITLE9=Hey tonight
TTITLE10=Tombstone shadow
TTITLE11=Travelin' band
TTITLE12=Lodi
TTITLE13=Born on the bayou
EXTD=
EXTT0=
EXTT1=
EXTT2=
EXTT3=
EXTT4=
EXTT5=
EXTT6=
EXTT7=
EXTT8=
EXTT9=
EXTT10=
EXTT11=
EXTT12=
EXTT13=
PLAYORDER=
